<?xml version='1.0' encoding='iso-8859-1'?>
<!DOCTYPE svg PUBLIC '-//W3C//DTD SVG 1.1//EN' 'http://www.w3.org/Graphics/SVG/1.1/DTD/svg11.dtd'>
<svg version="1.1" xmlns="http://www.w3.org/2000/svg" viewBox="0 0 458.949 458.949"
     enable-background="new 0 0 458.949 458.949">
    <g>
        <path d="m458.949,192.936v-28.435c0-46.582-37.896-84.479-84.479-84.479h-159.622c-15.101,0-27.386,12.285-27.386,27.385v5.051h-10.512v-3.585c0-4.142-3.357-7.5-7.5-7.5h-37.498c-4.143,0-7.5,3.358-7.5,7.5v3.585h-16.499c-4.143,0-7.5,3.358-7.5,7.5v13.401h-92.953c-4.143,0-7.5,3.358-7.5,7.5s3.357,7.5 7.5,7.5h92.953v13.402c0,4.142 3.357,7.5 7.5,7.5h16.499v3.585c0,4.142 3.357,7.5 7.5,7.5h37.498c4.143,0 7.5-3.358 7.5-7.5v-3.585h10.512v24.387c0,15.101 12.285,27.386 27.386,27.386h108.189l19.194,51.034c1.1,2.924 3.896,4.86 7.02,4.86h19.157l11.841,31.487c3.733,9.939 11.115,17.827 20.786,22.211 5.239,2.375 10.809,3.568 16.394,3.568 3.087,0 6.178-0.372 9.221-1.102l16.016,42.593c0.754,2.005 2.657,3.242 4.681,3.242 0.585,0 1.18-0.104 1.759-0.321 2.585-0.972 3.893-3.855 2.92-6.44l-16.02-42.602c17.441-9.197 25.763-30.2 18.646-49.125l-22.353-59.441c14.822-0.756 26.65-13.054 26.65-28.062zm-343.496-38.674v-26.803h8.999v26.803h-8.999zm46.497,11.085h-22.498v-48.974h22.498v48.974zm281.999-.846v11.432h-143.464v-30.498h77.496c2.762,0 5-2.239 5-5 0-18.471-15.027-33.499-33.499-33.499h-48.997v-11.914h73.985c38.311,0 69.479,31.168 69.479,69.479zm-143.464-47.565h48.997c11.242,0 20.666,7.935 22.964,18.499h-71.961v-18.499zm-123.535,37.326v-26.803h10.512v26.803h-10.512zm25.512,39.387v-86.242c0-6.829 5.557-12.385 12.386-12.385h75.638v111.013h-75.638c-6.829,0-12.386-5.556-12.386-12.386zm151.98,68.28l-15.379-40.89h8.325l15.377,40.89h-8.323zm71.717,55.66c-6.187,2.328-12.91,2.107-18.932-0.624-6.02-2.729-10.614-7.638-12.938-13.827l-30.877-82.104h52.874l24.325,64.684c4.802,12.771-1.68,27.068-14.452,31.871zm4.692-111.554h-130.366v-20.102h143.464v7.003c0,7.223-5.876,13.099-13.098,13.099z"/>
        <path d="m226.461,139.696h49.497c2.762,0 5-2.239 5-5s-2.238-5-5-5h-49.497c-2.762,0-5,2.239-5,5s2.238,5 5,5z"/>
        <path d="m275.958,146.945h-49.497c-2.762,0-5,2.239-5,5s2.238,5 5,5h49.497c2.762,0 5-2.239 5-5s-2.238-5-5-5z"/>
        <path d="m275.958,164.195h-49.497c-2.762,0-5,2.239-5,5s2.238,5 5,5h49.497c2.762,0 5-2.239 5-5s-2.238-5-5-5z"/>
        <path d="m394.48,229.93c-8.547,0-15.5,6.953-15.5,15.5s6.953,15.5 15.5,15.5c8.546,0 15.499-6.953 15.499-15.5s-6.953-15.5-15.499-15.5zm0,20.999c-3.033,0-5.5-2.467-5.5-5.5s2.467-5.5 5.5-5.5c3.032,0 5.499,2.467 5.499,5.5s-2.466,5.5-5.499,5.5z"/>
    </g>
</svg>
