<?xml version="1.0" encoding="iso-8859-1"?>
<!-- Generator: Adobe Illustrator 19.0.0, SVG Export Plug-In . SVG Version: 6.00 Build 0)  -->
<svg version="1.1" id="Layer_1" xmlns="http://www.w3.org/2000/svg"  x="0px" y="0px"
	 viewBox="0 0 512 512" style="enable-background:new 0 0 512 512;" xml:space="preserve">
<g>
	<g>
		<path d="M59.373,192.886c-4.059-4.057-8.503-7.619-13.212-10.586c-3.791-2.388-8.615-2.387-12.406,0.003
			c-4.717,2.976-9.16,6.534-13.207,10.581C9.914,203.519,2.862,216.657,0.691,229.88c-2.372,14.429,1.43,27.865,10.426,36.861
			c4.47,4.47,9.926,7.652,16.211,9.456c3.859,1.109,7.97,1.67,12.222,1.67c0.178,0,0.357-0.001,0.535-0.003
			c3.925-0.042,7.968-0.558,12.015-1.536c0.159-0.038,0.316-0.08,0.475-0.124c6.297-1.805,11.758-4.988,16.232-9.462
			C86.868,248.681,82.726,216.24,59.373,192.886z M52.356,250.288c-1.599,1.601-3.607,2.771-5.969,3.483
			c-2.256,0.527-4.459,0.805-6.556,0.828c-2.199,0.024-4.232-0.233-6.082-0.765c-2.453-0.704-4.533-1.897-6.183-3.547
			c-4.972-4.969-4.589-12.555-3.919-16.635c1.37-8.338,6.236-17.201,13.352-24.316c0.957-0.959,1.947-1.876,2.962-2.751
			c1.013,0.874,2.001,1.791,2.961,2.751C56.578,222.992,60.898,241.747,52.356,250.288z"/>
	</g>
</g>
<g>
	<g>
		<path d="M493.626,374.332C504.842,365.038,512,351.01,512,335.34c0-27.914-22.709-50.624-50.624-50.624h-10.006l0.315-2.214
			c6.37-44.648-5.029-89.102-32.094-125.173c-27.048-36.05-66.51-59.415-111.122-65.802c-0.027-0.003-0.052-0.012-0.08-0.015
			l-46.93-6.696l1.687-11.823c0.436-3.054-0.359-6.156-2.21-8.623c-1.852-2.468-4.608-4.099-7.662-4.534l-81.791-11.67
			c-6.356-0.907-12.25,3.512-13.159,9.872l-1.837,12.875L48.387,65.934c-6.012-0.3-11.205,4.045-12.05,9.977l-7.893,55.319
			c-0.848,5.934,2.954,11.54,8.779,12.95l105.178,25.453l-1.837,12.875c-0.907,6.36,3.513,12.25,9.873,13.159l81.791,11.67
			c0.557,0.079,1.11,0.119,1.658,0.119c5.695,0,10.673-4.189,11.501-9.991l1.687-11.822l46.931,6.696
			c0.008,0.001,0.016,0,0.024,0.002c36.711,5.263,62.314,39.402,57.079,76.117l-2.32,16.26h-5.622H155.011
			c-27.914,0-50.624,22.709-50.624,50.624c0,15.669,7.158,29.698,18.374,38.992c-11.216,9.293-18.374,23.321-18.374,38.992
			c0,27.915,22.709,50.626,50.624,50.626h306.364c27.914,0,50.624-22.709,50.624-50.626
			C512,397.654,504.842,383.625,493.626,374.332z M145.704,146.494L52.97,124.054l4.907-34.392l95.31,4.389L145.704,146.494z
			 M236.786,93.046v0.001v0.001l-12.787,89.614l-58.758-8.384l14.473-101.437l58.758,8.384L236.786,93.046z M297.289,169.303
			c-0.021-0.003-0.042-0.003-0.064-0.006l-46.865-6.687l7.814-54.762l46.865,6.686c0.021,0.003,0.04,0.008,0.059,0.012
			c38.495,5.492,72.546,25.644,95.883,56.746s33.163,69.43,27.672,107.925l-0.785,5.5h-55.579l1.851-12.975
			C381.189,222.32,346.714,176.366,297.289,169.303z M461.375,440.683H155.011c-15.085,0-27.359-12.274-27.359-27.36
			c0-15.085,12.274-27.359,27.359-27.359h306.364c15.085,0,27.359,12.274,27.359,27.359
			C488.734,428.41,476.461,440.683,461.375,440.683z M461.375,362.7H155.011c-15.085-0.001-27.359-12.274-27.359-27.359
			c0-15.085,12.274-27.359,27.359-27.359h306.364c15.085,0,27.359,12.274,27.359,27.359S476.461,362.7,461.375,362.7z"/>
	</g>
</g>
<g>
</g>
<g>
</g>
<g>
</g>
<g>
</g>
<g>
</g>
<g>
</g>
<g>
</g>
<g>
</g>
<g>
</g>
<g>
</g>
<g>
</g>
<g>
</g>
<g>
</g>
<g>
</g>
<g>
</g>
</svg>
