<?xml version="1.0" encoding="iso-8859-1"?>
<!-- Generator: Adobe Illustrator 19.0.0, SVG Export Plug-In . SVG Version: 6.00 Build 0)  -->
<svg version="1.1" id="Layer_1" xmlns="http://www.w3.org/2000/svg"  x="0px" y="0px"
	 viewBox="0 0 512.002 512.002" style="enable-background:new 0 0 512.002 512.002;" xml:space="preserve">
<g>
	<g>
		<g>
			<path d="M172.513,203.77c2.053,0,4.107-0.783,5.675-2.351l11.347-11.348c3.134-3.134,3.133-8.215,0-11.347
				c-3.135-3.133-8.215-3.134-11.348,0.001l-11.347,11.348c-3.134,3.134-3.133,8.215,0,11.347
				C168.406,202.987,170.459,203.77,172.513,203.77z"/>
			<path d="M206.557,169.726c2.053,0,4.107-0.783,5.674-2.349l11.347-11.347c3.134-3.135,3.134-8.215,0-11.348
				c-3.134-3.133-8.215-3.133-11.347,0l-11.347,11.347c-3.134,3.135-3.134,8.215,0,11.348
				C202.45,168.943,204.503,169.726,206.557,169.726z"/>
			<path d="M343.187,34.033c1.724,0,3.46-0.553,4.926-1.694c3.822-2.975,7.94-5.6,12.239-7.801c3.946-2.02,5.507-6.854,3.488-10.8
				c-2.019-3.947-6.856-5.505-10.8-3.488c-5.195,2.659-10.171,5.831-14.788,9.427c-3.495,2.723-4.122,7.764-1.4,11.261
				C338.433,32.971,340.797,34.033,343.187,34.033z"/>
			<path d="M387.307,16.456c0.26,0,0.523-0.014,0.789-0.039c4.795-0.469,9.706-0.492,14.535-0.062
				c4.384,0.382,8.311-2.866,8.705-7.282c0.393-4.413-2.867-8.311-7.282-8.705c-5.813-0.517-11.735-0.49-17.516,0.074
				c-4.411,0.43-7.638,4.356-7.207,8.766C379.735,13.357,383.226,16.456,387.307,16.456z"/>
			<path d="M430.44,24.242c4.319,2.165,8.458,4.754,12.301,7.694c1.455,1.114,3.169,1.652,4.87,1.652
				c2.414,0,4.798-1.084,6.379-3.148c2.693-3.519,2.024-8.556-1.496-11.249c-4.642-3.552-9.643-6.68-14.863-9.296
				c-3.96-1.987-8.784-0.384-10.769,3.579C424.877,17.434,426.479,22.255,430.44,24.242z"/>
			<path d="M240.6,135.683c2.053,0,4.107-0.783,5.675-2.351l11.347-11.348c3.134-3.134,3.134-8.215,0-11.347
				c-3.135-3.133-8.215-3.134-11.348,0.001l-11.348,11.348c-3.134,3.134-3.133,8.215,0.001,11.347
				C236.494,134.899,238.547,135.683,240.6,135.683z"/>
			<path d="M308.688,67.595c2.053,0,4.107-0.783,5.675-2.349l11.348-11.348c3.134-3.135,3.134-8.215,0-11.348
				c-3.135-3.133-8.215-3.133-11.348,0l-11.348,11.348c-3.134,3.135-3.134,8.215,0,11.348
				C304.581,66.812,306.635,67.595,308.688,67.595z"/>
			<path d="M274.644,101.639c2.053,0,4.107-0.783,5.675-2.349l11.347-11.347c3.134-3.135,3.134-8.215,0-11.348
				c-3.135-3.133-8.215-3.133-11.348,0L268.97,87.941c-3.134,3.135-3.134,8.215,0,11.348
				C270.537,100.855,272.591,101.639,274.644,101.639z"/>
			<path d="M360.796,238.204l-11.348,11.348c-3.134,3.135-3.134,8.215,0,11.348c1.567,1.566,3.622,2.349,5.675,2.349
				c2.053,0,4.107-0.783,5.675-2.349l11.348-11.348c3.134-3.135,3.134-8.215,0-11.348
				C369.01,235.071,363.929,235.071,360.796,238.204z"/>
			<path d="M428.883,170.116l-11.349,11.348c-3.134,3.135-3.134,8.215,0,11.348c1.567,1.566,3.622,2.349,5.675,2.349
				c2.053,0,4.107-0.783,5.675-2.349l11.348-11.348c3.134-3.135,3.134-8.215,0-11.348
				C437.097,166.984,432.018,166.984,428.883,170.116z"/>
			<path d="M394.839,204.161l-11.348,11.347c-3.134,3.135-3.134,8.215,0,11.348c1.567,1.566,3.622,2.349,5.675,2.349
				c2.053,0,4.107-0.783,5.675-2.349l11.348-11.347c3.134-3.135,3.134-8.215,0-11.348
				C403.053,201.028,397.973,201.028,394.839,204.161z"/>
			<path d="M471.673,133.877c-3.702-2.434-8.677-1.407-11.114,2.296c-2.648,4.027-5.704,7.84-9.083,11.337
				c-3.08,3.186-2.996,8.266,0.19,11.346c1.559,1.506,3.569,2.255,5.577,2.255c2.099,0,4.196-0.818,5.77-2.446
				c4.074-4.213,7.76-8.814,10.956-13.673C476.402,141.288,475.375,136.313,471.673,133.877z"/>
			<path d="M481.412,87.166c-0.05-0.001-0.099-0.001-0.15-0.001c-4.363,0-7.94,3.497-8.02,7.878
				c-0.088,4.846-0.632,9.703-1.617,14.437c-0.903,4.34,1.884,8.588,6.221,9.49c0.552,0.115,1.101,0.17,1.642,0.17
				c3.721,0,7.06-2.605,7.848-6.393c1.188-5.712,1.844-11.57,1.95-17.413C489.37,90.904,485.844,87.246,481.412,87.166z"/>
			<path d="M326.75,272.248l-11.347,11.347c-3.134,3.135-3.134,8.215,0,11.348c1.567,1.566,3.622,2.349,5.675,2.349
				c2.053,0,4.107-0.783,5.675-2.349l11.347-11.348c3.134-3.135,3.134-8.215,0-11.348
				C334.965,269.117,329.885,269.117,326.75,272.248z"/>
			<path d="M292.707,306.292l-11.348,11.348c-3.134,3.135-3.134,8.215,0,11.348c1.567,1.566,3.622,2.35,5.675,2.35
				c2.053,0,4.107-0.783,5.675-2.35l11.348-11.348c3.134-3.135,3.134-8.215,0-11.348C300.922,303.16,295.842,303.16,292.707,306.292
				z"/>
			<path d="M259.499,339.619c-0.602-0.69-11.333-11.48-11.333-11.48L439.19,137.116c23.985-23.986,23.985-63.014-0.001-87.002
				c-11.619-11.618-27.068-18.017-43.5-18.017s-31.881,6.399-43.501,18.017L161.164,241.138l-9.456-9.456
				c-0.634-0.634-1.292-1.236-1.961-1.822l5.743-5.743c3.134-3.135,3.134-8.215,0-11.348c-3.134-3.133-8.215-3.133-11.347,0
				l-8.94,8.94c-3.794-1.169-7.781-1.778-11.864-1.778c-10.717,0-20.792,4.174-28.37,11.751l-2.463,2.463
				c-15.57-10.298-36.795-8.598-50.495,5.103c-7.578,7.578-11.751,17.653-11.751,28.37c0,7.99,2.323,15.623,6.643,22.13
				l-2.458,2.458c-15.643,15.643-15.643,41.097,0,56.741l54.848,54.848l-17.022,17.022c-15.643,15.643-15.643,41.096,0,56.74
				l22.696,22.695c7.577,7.578,17.652,11.752,28.369,11.752s20.792-4.174,28.369-11.751L257.62,394.337
				c7.578-7.578,11.752-17.653,11.752-28.37c0-4.082-0.61-8.07-1.778-11.864l2.417-2.417c3.134-3.135,3.134-8.215,0-11.348
				C267.142,337.467,262.644,337.235,259.499,339.619z M363.536,61.462c8.588-8.588,20.007-13.317,32.154-13.317
				s23.564,4.729,32.153,13.316c17.728,17.73,17.728,46.578,0,64.306L236.818,316.791l-64.306-64.305L363.536,61.462z
				 M53.359,250.596c7.395-7.394,18.432-8.938,27.377-4.682L48.67,277.979c-1.529-3.199-2.362-6.714-2.362-10.363
				C46.308,261.186,48.812,255.141,53.359,250.596z M246.274,382.987L140.359,488.902c-4.547,4.546-10.592,7.051-17.022,7.051
				c-6.43,0-12.475-2.505-17.022-7.052L83.62,466.206c-9.385-9.386-9.386-24.659,0-34.044l22.696-22.696
				c1.505-1.505,2.351-3.546,2.351-5.675c0-2.128-0.845-4.169-2.351-5.675l-60.522-60.521c-9.385-9.386-9.385-24.659,0-34.044
				l52.951-52.951c0.002-0.002,0.004-0.004,0.005-0.005c0.002-0.001,0.003-0.003,0.004-0.005l7.56-7.56
				c4.547-4.547,10.592-7.052,17.022-7.052c6.43,0,12.476,2.505,17.022,7.052l105.914,105.914
				c4.546,4.546,7.051,10.591,7.051,17.021C253.326,372.396,250.821,378.441,246.274,382.987z"/>
			<path d="M468.394,66.527c1.201,3.232,4.265,5.231,7.522,5.231c0.929,0,1.873-0.162,2.795-0.505
				c4.153-1.544,6.27-6.164,4.726-10.318c-2.036-5.479-4.605-10.792-7.634-15.79c-2.296-3.791-7.231-5-11.021-2.704
				c-3.791,2.296-5.001,7.231-2.704,11.021C464.585,57.597,466.709,61.993,468.394,66.527z"/>
			<path d="M106.316,443.511c-3.134-3.133-8.215-3.133-11.347,0c-3.134,3.135-3.134,8.215,0,11.348l22.696,22.696
				c1.566,1.566,3.621,2.349,5.674,2.349c2.053,0,4.107-0.783,5.674-2.349c3.134-3.135,3.134-8.215,0-11.348L106.316,443.511z"/>
			<path d="M181.969,307.333c-1.504-1.504-3.546-2.349-5.674-2.349c-2.128,0-4.169,0.845-5.674,2.349l-22.696,22.697
				c-1.505,1.505-2.351,3.546-2.351,5.675v22.237h-14.212v-7.107c0-4.433-3.593-8.024-8.024-8.024s-8.024,3.592-8.024,8.024v30.262
				c0,4.433,3.593,8.024,8.024,8.024s8.024-3.592,8.024-8.024v-7.106h14.212v22.237c0,2.128,0.845,4.169,2.351,5.675l22.696,22.697
				c1.504,1.504,3.546,2.349,5.674,2.349c2.128,0,4.169-0.845,5.674-2.349l52.957-52.958c3.134-3.135,3.134-8.215,0-11.349
				L181.969,307.333z M176.295,407.576l-14.672-14.673v-53.875l14.672-14.673l41.609,41.61L176.295,407.576z"/>
		</g>
	</g>
</g>
<g>
</g>
<g>
</g>
<g>
</g>
<g>
</g>
<g>
</g>
<g>
</g>
<g>
</g>
<g>
</g>
<g>
</g>
<g>
</g>
<g>
</g>
<g>
</g>
<g>
</g>
<g>
</g>
<g>
</g>
</svg>
